<svg id="圖層_1" data-name="圖層 1" xmlns="http://www.w3.org/2000/svg" viewBox="0 0 83 83"><defs><style>.cls-1{fill:none;}.cls-2,.cls-3{fill:#fff;stroke-linecap:round;stroke-linejoin:round;}.cls-2{stroke:#999;}.cls-3{stroke:#09a6aa;}</style></defs><title>fig01</title><rect class="cls-1" width="83" height="83"/><path class="cls-2" d="M40.36,63A41.75,41.75,0,0,0,7.74,63V24.66a28.36,28.36,0,0,1,32.62,0Z"/><path class="cls-2" d="M73.1,63a41.75,41.75,0,0,0-32.62,0V24.66a28.36,28.36,0,0,1,32.62,0Z"/><line class="cls-2" x1="49.73" y1="31.76" x2="64.29" y2="31.76"/><line class="cls-2" x1="49.73" y1="36.84" x2="64.29" y2="36.84"/><line class="cls-2" x1="49.73" y1="41.59" x2="64.29" y2="41.59"/><line class="cls-2" x1="16.88" y1="41.59" x2="31.44" y2="41.59"/><line class="cls-2" x1="16.88" y1="46.67" x2="31.44" y2="46.67"/><line class="cls-2" x1="16.88" y1="51.41" x2="31.44" y2="51.41"/><path class="cls-3" d="M62.89,68.87a10.51,10.51,0,0,1-5.17-10.41c.17-1.35-3.72-6.66-3.63-6.83s6.54.68,7.56-.12a10.51,10.51,0,1,1,1.24,17.36Z"/><rect class="cls-2" x="16.88" y="27.02" width="14.22" height="8.8"/></svg>