<svg id="圖層_1" data-name="圖層 1" xmlns="http://www.w3.org/2000/svg" viewBox="0 0 83 83"><defs><style>.cls-1{fill:none;}.cls-2,.cls-3{fill:#fff;stroke-linecap:round;stroke-linejoin:round;}.cls-2{stroke:#09a6aa;}.cls-3{stroke:#999;}</style></defs><title>fig03</title><rect class="cls-1" width="83" height="83"/><path class="cls-2" d="M31.5,55v4.92a5.79,5.79,0,0,0,6,5.58H39v11h7.5v-11H48a5.79,5.79,0,0,0,6-5.58V55Z"/><rect class="cls-3" x="9.5" y="10.5" width="65" height="45"/><polyline class="cls-3" points="14 51.5 41.5 29.5 69 51.5"/><polyline class="cls-3" points="69 15.5 41.5 37.5 14 15.5"/><path class="cls-2" d="M31.5,58.5v-12a2,2,0,0,1,4,0V54a10.35,10.35,0,0,1,5,2.5,7.81,7.81,0,0,1,2,5"/></svg>